<svg xmlns="http://www.w3.org/2000/svg" version="1.1" viewBox="-5.0 -10.0 110.0 135.0">
 <path d="m48.672 92.633c-0.03125 0-0.058594-0.003906-0.089844-0.007812-0.15234-0.03125-0.27734-0.14453-0.32812-0.28906l-0.10547-0.32031c-0.054688-0.15234-0.19922-0.25781-0.35938-0.25781-0.36719 0-0.66406-0.29687-0.66406-0.66406v-0.13281c0-0.13281-0.070312-0.25391-0.18359-0.32422l-1.6953-1.0195c-0.097656-0.054688-0.21875-0.039063-0.29688 0.039062l-0.23047 0.22656c-0.27734 0.27734-0.69141 0.35156-1.0469 0.19531l-3.5312-1.5664c-0.34375-0.15625-0.74219-0.14453-1.082 0.027343-0.37891 0.19141-0.82422 0.21875-1.2227 0.074219l-0.67578-0.24609c-0.17188-0.0625-0.29688-0.21094-0.33203-0.39063-0.03125-0.17969 0.035156-0.36328 0.17188-0.48047 0.070312-0.058594 0.10938-0.14062 0.10938-0.23047 0-0.17188-0.13672-0.30859-0.30859-0.30859-0.60547-0.007812-1.1797 0.26172-1.5664 0.72656-0.0625 0.074218-0.085937 0.16797-0.066406 0.26172 0.023437 0.089844 0.082031 0.16797 0.16797 0.21094 0.1875 0.089844 0.30469 0.28125 0.30469 0.48828v0.34766c0 0.24219-0.19922 0.4375-0.44141 0.4375h-0.80859c-0.24219 0-0.47656-0.089844-0.65625-0.25391-0.24609-0.22266-0.61719-0.23828-0.87891-0.035156l-0.13672 0.10156c-0.34375 0.26172-0.76172 0.40234-1.1953 0.40234h-0.28516 0.003907c-0.22656 0-0.42969-0.14453-0.5-0.35938-0.023438-0.070312-0.078126-0.125-0.14453-0.14844-0.070312-0.023438-0.14844-0.015625-0.21094 0.019531l-0.38672 0.23828v0.003907c-0.21094 0.13281-0.46875 0.17187-0.71094 0.11328-0.24219-0.0625-0.45312-0.21875-0.57812-0.43359l-0.23047-0.39844c-0.39844-0.67969-0.46875-1.5039-0.18359-2.2383l0.55078-1.4531c0.12109-0.32031 0.085938-0.68359-0.097656-0.97656-0.22656-0.36328-0.27344-0.8125-0.125-1.2188l0.86328-2.3242c0.83594-2.2344 2.0078-4.332 3.4805-6.2109 0.085938-0.11328 0.11328-0.25781 0.074219-0.39453-0.039063-0.13672-0.14453-0.24219-0.27734-0.28906l-3.6797-1.2617c-0.35156-0.12109-0.58594-0.44922-0.58594-0.81641 0-0.10938-0.089844-0.19922-0.19922-0.19922-0.32812 0-0.64062 0.12891-0.875 0.35938-0.28125 0.27344-0.65234 0.42969-1.0469 0.4375l-0.48047 0.011719v-0.003907c-0.24609 0.007813-0.48047-0.085937-0.65625-0.26172-0.17578-0.16797-0.27344-0.40234-0.27344-0.64844 0.003906-0.16406-0.066406-0.32031-0.1875-0.42969-0.11719-0.10938-0.27734-0.16797-0.44141-0.15234-0.14844 0.007813-0.26172 0.13281-0.26172 0.28125 0 0.3125-0.25391 0.56641-0.57031 0.56641-0.42187 0-0.80078-0.26562-0.94531-0.66797l-0.91406-2.5547h-0.003907c-0.074219-0.21484-0.28125-0.35938-0.51172-0.35938-0.22266 0-0.43359-0.11328-0.55469-0.30469-0.12109-0.1875-0.14062-0.42187-0.050781-0.62891l0.86328-1.9648c0.19922-0.45703 0.074219-0.98828-0.30469-1.3125l-0.82031-0.6875c-0.72656-0.60547-1.1445-1.5-1.1445-2.4453 0.003906-1.0039 0.52734-1.9336 1.3828-2.457 0.35547-0.21484 0.57031-0.59766 0.57031-1.0117v-0.59766c0-0.19922-0.16016-0.35938-0.35547-0.35938-0.23047 0-0.44141-0.125-0.55859-0.32031-0.11328-0.19922-0.11328-0.44531 0.003906-0.64062l0.10156-0.17969c0.089844-0.15234 0.054687-0.34766-0.082031-0.45703l-1.0547-0.85937c-0.42188-0.33984-0.53516-0.9375-0.26562-1.4141 0.18359-0.33203 0.12109-0.74609-0.15234-1.0117l-0.41406-0.39453c-0.14844-0.14062-0.22656-0.33594-0.21484-0.53906 0.007813-0.20312 0.10938-0.39453 0.26953-0.51953l0.87109-0.67578c0.25-0.19531 0.36719-0.51172 0.30078-0.82031-0.066407-0.32031 0.011718-0.65234 0.21484-0.90625l0.22266-0.28516v-0.003906c0.69922-0.89062 0.76953-2.125 0.17969-3.0938l-0.92969-1.5273c-0.20703-0.34375-0.17578-0.78125 0.085937-1.0898l0.52344-0.61328h0.003907c0.34375-0.40625 0.92969-0.50781 1.3906-0.24609 0.59766 0.33984 1.3203 0.36719 1.9453 0.078126l1.4102-0.65625h-0.003906c0.10156-0.046876 0.17188-0.14063 0.1875-0.25 0.015625-0.10938-0.023437-0.21875-0.10547-0.29297-0.13281-0.11719-0.20703-0.28516-0.20313-0.46094 0-0.17578 0.078126-0.33984 0.21094-0.45703l0.97266-0.84375c0.63281-0.55078 1-1.3516 1-2.1914 0-0.37891-0.26172-0.70703-0.63281-0.78906l-0.85938-0.19531v-0.003907c-0.40625-0.09375-0.67188-0.48047-0.61328-0.89062l0.10937-0.77344h-0.003906c0.058594-0.42969 0.45312-0.73438 0.88672-0.67969l0.75 0.085938v0.003906c0.14844 0.015625 0.29297-0.03125 0.40625-0.12891 0.10938-0.10156 0.17188-0.24219 0.17188-0.39453l-0.007812-0.68359c-0.007813-0.61719 0.24609-1.2109 0.69922-1.6367 0.37109-0.33984 0.58984-0.8125 0.60938-1.3164l0.10938-2.4258c0.015625-0.33594-0.19141-0.64062-0.51172-0.75391-0.44922-0.15234-0.73828-0.59375-0.70313-1.0664l0.046876-0.60156h0.003906c0.015625-0.20703 0.14453-0.39062 0.33203-0.47656l0.17969-0.082031c0.074219-0.035156 0.13281-0.10156 0.15625-0.17969 0.023438-0.082031 0.011719-0.16797-0.03125-0.23828-0.14453-0.23047-0.10547-0.52734 0.085938-0.71484l0.22656-0.21875c0.47656-0.46484 1.1094-0.72656 1.7695-0.74219l3.4453-0.074219h0.003906c0.36328 0 0.66797 0.27344 0.70703 0.63281l0.17969 1.918c0.019531 0.24609 0.15625 0.46484 0.36328 0.59766l0.54688 0.35156v0.003907c0.050781 0.03125 0.11328 0.023437 0.16016-0.011719 0.25391-0.21875 0.39844-0.53516 0.39844-0.86719 0-0.078125-0.042969-0.15234-0.10938-0.1875-0.29297-0.16016-0.43359-0.50391-0.33984-0.82422 0.050782-0.16406 0.17188-0.29687 0.33203-0.35937 0.15625-0.0625 0.33594-0.046876 0.48438 0.042968l0.70312 0.41797-0.003906-0.003906c0.070312 0.042969 0.15625 0.039062 0.22266-0.003907 0.066406-0.046874 0.10156-0.125 0.085937-0.20703l-0.10156-0.61719v0.003906c-0.066407-0.39062-0.015625-0.78906 0.14844-1.1445l0.45312-0.99609c0.097657-0.21094 0.27734-0.36328 0.5-0.42578 0.21875-0.0625 0.45703-0.019532 0.64453 0.10938 0.39453 0.27734 0.88281 0.39062 1.3594 0.32031 0.10937-0.019531 0.19922-0.089843 0.24219-0.19141s0.027344-0.21875-0.039063-0.30469l-0.63672-0.84375v-0.003907c-0.10156-0.13672-0.12109-0.32031-0.046875-0.47656 0.074219-0.15234 0.22656-0.25391 0.40234-0.26172 0.16406-0.003906 0.3125-0.10156 0.38672-0.25391 0.074219-0.14844 0.0625-0.32422-0.035156-0.46094l-0.14453-0.20312v-0.003906c-0.066406-0.09375-0.19141-0.12891-0.29688-0.078125-0.15234 0.070312-0.32812 0.066406-0.47656-0.015625-0.14453-0.082031-0.24219-0.23047-0.26172-0.39844l-0.019532-0.14844c-0.03125-0.29297 0.050782-0.58203 0.23438-0.8125 0.023438-0.03125 0.027344-0.078125 0.007813-0.11328-0.019532-0.039063-0.0625-0.058594-0.10156-0.046875l-0.64453 0.089844v-0.003907c-0.30469 0.042969-0.60938-0.09375-0.77734-0.34766-0.17188-0.25781-0.18359-0.58984-0.027344-0.85547l0.14453-0.24219c0.14453-0.24609 0.41016-0.39844 0.69531-0.39844h0.85156-0.003907c0.26563 0 0.51172-0.14453 0.64063-0.37891 0.12891-0.23047 0.12109-0.51562-0.019532-0.74219l-1.7266-2.7617c-0.17578-0.28516-0.25781-0.61719-0.23047-0.94922 0.039063-0.48438 0.44141-0.85156 0.92188-0.85547 0.73438 0 1.4531 0.19922 2.0781 0.57812l0.64844 0.39453c0.37109 0.22656 0.81641 0.28516 1.2305 0.16016 0.72266-0.21094 1.4961-0.19922 2.2109 0.042968l1.0469 0.35156c0.32422 0.10938 0.58984 0.35156 0.72656 0.66406 0.28125 0.62109 0.36328 1.3125 0.24609 1.9844-0.058594 0.3125-0.19531 0.60938-0.39844 0.85547-0.015624 0.019531-0.019531 0.046875-0.003906 0.070313 0.011719 0.023437 0.039063 0.03125 0.0625 0.023437l0.78516-0.21094v0.003906c0.25-0.070312 0.50391 0.078125 0.57422 0.32422 0.03125 0.11719 0.11719 0.21484 0.22656 0.26172 0.11328 0.046874 0.24219 0.042968 0.34766-0.011719 0.20312-0.10938 0.44922-0.10938 0.65234 0.003906l1.9883 1.1016c0.24219 0.13281 0.54297 0.10937 0.75781-0.0625 0.35156-0.27344 0.77344-0.44141 1.2148-0.48047 0.20703-0.019531 0.41016 0.050781 0.5625 0.19141 0.15234 0.14062 0.23828 0.33984 0.23828 0.54688v0.41016c0 0.625-0.25 1.2227-0.69531 1.6641l-0.5 0.49219c-0.14453 0.14062-0.33984 0.21875-0.54688 0.21484-0.18359 0-0.35156 0.10547-0.43359 0.27344-0.050781 0.10547-0.015625 0.23437 0.082031 0.30078l0.35156 0.24219c0.22656 0.15625 0.52734 0.16797 0.76562 0.027344 0.56641-0.32812 1.2812-0.24219 1.7539 0.21094l0.17578 0.17187h0.003906c0.20703 0.19922 0.5 0.29297 0.78516 0.24609 0.28516-0.042968 0.53516-0.22266 0.67188-0.47656l0.52734-0.98047c0.36328-0.66797 1.0117-1.1328 1.7617-1.2578l0.29297-0.046874c0.85547-0.13672 1.6445-0.53125 2.2656-1.1328 0.25-0.23828 0.58594-0.37109 0.93359-0.37109 0.25 0 0.49219-0.089843 0.68359-0.25l0.37891-0.32031h-0.003906c0.40234-0.33594 0.94922-0.44141 1.4453-0.27734 0.25781 0.085937 0.53906 0.003906 0.70703-0.20703l0.23047-0.28516h0.003907c0.10547-0.13672 0.27344-0.21094 0.44922-0.19531 0.17188 0.011719 0.32812 0.10547 0.41797 0.25 0.11719 0.19141 0.33984 0.28516 0.55469 0.24219l0.20703-0.042968h0.003906c0.042969-0.011719 0.082031-0.042969 0.097656-0.085938 0.015625-0.042968 0.007813-0.09375-0.019531-0.12891-0.17578-0.23047-0.14844-0.55859 0.058594-0.76172 0.035156-0.035156 0.054687-0.082031 0.050781-0.13672 0-0.050781-0.027344-0.097656-0.066406-0.12891-0.15625-0.12109-0.23828-0.31641-0.21875-0.51562 0.019531-0.19922 0.14062-0.375 0.31641-0.46484 0.046875-0.023438 0.074219-0.070313 0.070312-0.12109l-0.027343-0.37891c-0.023438-0.30859 0.17969-0.58984 0.48047-0.66406l0.25-0.0625h-0.003907c0.15234-0.039063 0.31641 0.015625 0.41016 0.14062 0.097656 0.125 0.10937 0.29688 0.03125 0.43359l-0.35938 0.63672c-0.035156 0.066407-0.054687 0.14063-0.058593 0.21875-0.011719 0.19141 0.097656 0.37109 0.26953 0.45703l0.30078 0.14844c0.039063 0.019531 0.085938 0.019531 0.12109 0 0.039063-0.019531 0.066406-0.058593 0.070313-0.10156l0.058593-0.39844c0.058594-0.375 0.37891-0.65234 0.75781-0.65234 0.39844 0 0.72266 0.32422 0.72266 0.72266v0.35156-0.003906c0 0.20312-0.12891 0.37891-0.31641 0.44531-0.078125 0.027344-0.12891 0.097657-0.125 0.17969l0.003906 0.097656h-0.003906c0.003906 0.14844 0.11719 0.27344 0.26172 0.28906 0.32422 0.042969 0.57422 0.3125 0.58984 0.63672l0.023438 0.48047c0.003906 0.13672-0.066406 0.26172-0.1875 0.32422-0.11719 0.0625-0.26172 0.046875-0.37109-0.035156l-0.17969-0.14062v0.003906c-0.26562-0.20703-0.63281-0.21875-0.91016-0.027344l-0.47656 0.32422c-0.20703 0.14062-0.34375 0.36328-0.375 0.61328s0.046875 0.5 0.21484 0.6875c0.30469 0.34375 0.80078 0.44531 1.2188 0.25391l0.42578-0.19922h0.003906c0.54688-0.25391 1.1992-0.11719 1.5938 0.34375l0.21484 0.24609c0.089843 0.10156 0.21484 0.16797 0.35156 0.17969 0.20703 0.011719 0.39844 0.10547 0.53516 0.25781l1.0938 1.207v0.003906c0.14844 0.16406 0.1875 0.40234 0.09375 0.60938-0.089844 0.20312-0.29297 0.33594-0.51563 0.33594h-0.25781c-0.16406 0-0.32422 0.058593-0.44922 0.16406-0.16797 0.14453-0.38281 0.22266-0.60547 0.22266-0.058593 0-0.082031 0.074219-0.035156 0.10938l0.17969 0.14453c0.36719 0.28516 0.82812 0.42969 1.293 0.40234h0.058594c0.5 0 0.94141 0.33203 1.0703 0.81641l1.0117 3.6367c0.16016 0.57812 0.15625 1.1875-0.015626 1.7656-0.078124 0.26562-0.12109 0.54688-0.12109 0.82812 0 0.57031-0.26562 1.1133-0.72266 1.4609l-0.21484 0.16406c-0.34766 0.26562-0.54297 0.67969-0.53125 1.1172 0.011719 0.43359 0.23438 0.83594 0.59375 1.082l2.1445 1.4492h0.003906c0.5 0.33984 0.80078 0.90234 0.80078 1.5117 0 0.39062-0.14844 0.76562-0.41406 1.0508-0.074219 0.078125-0.089844 0.19141-0.046875 0.28906l0.41016 0.89453c0.066406 0.14063 0.19141 0.24609 0.34375 0.28516 0.37891 0.10156 0.62891 0.46484 0.59375 0.85547l-0.066406 0.74219c-0.015625 0.17578 0.054688 0.34766 0.1875 0.46094 0.24219 0.20703 0.34375 0.53516 0.26562 0.83984l-0.23828 0.89844v0.003906c-0.082032 0.31641-0.25 0.60547-0.48438 0.83594-0.14453 0.14062-0.16406 0.36328-0.050781 0.52344l0.82812 1.1914h0.003907c0.19922 0.28516 0.25781 0.64453 0.16016 0.97656-0.12891 0.45312 0.12109 0.92578 0.57031 1.0703 0.66016 0.21094 1.168 0.73438 1.3594 1.3984l0.12891 0.44531c0.14844 0.51172 0.15234 1.0547 0.015625 1.5703l-0.97266 3.6719-0.003907 0.003906c-0.10547 0.40234-0.46094 0.69531-0.87891 0.71484-0.41797 0.023437-0.80469-0.22266-0.95312-0.61328l-0.38281-0.98828c-0.11328-0.28906-0.39063-0.48047-0.69922-0.48047l-0.63672-0.003906v-0.003906c-0.046875 0-0.085938 0.027344-0.10938 0.066406-0.019531 0.039063-0.019531 0.085938 0.003906 0.125l0.25391 0.38672c0.10547 0.15625 0.13281 0.34766 0.082031 0.52734-0.050781 0.17969-0.17578 0.32812-0.34375 0.41016l-2.2539 1.0586c-0.19922 0.09375-0.34766 0.27344-0.39844 0.48828-0.10547 0.42969-0.47266 0.74609-0.91406 0.77344l-1.1406 0.082031c-0.30859 0.023437-0.57422 0.22266-0.68359 0.51172l-0.18359 0.48437c-0.054688 0.14844-0.18359 0.25781-0.33594 0.28906-0.15234 0.03125-0.3125-0.019531-0.42187-0.13281-0.042969-0.050781-0.10938-0.078124-0.17578-0.070312-0.0625 0.003906-0.125 0.035156-0.16406 0.089844l-0.75 1c-0.19922 0.26562-0.51172 0.42188-0.84375 0.42188-0.33594 0-0.63281 0.21484-0.73438 0.53516-0.046875 0.14844-0.15625 0.26953-0.29688 0.33203-0.14453 0.058594-0.30469 0.054688-0.44531-0.015625l-0.41016-0.20312c-0.22656-0.10938-0.5-0.027344-0.625 0.19141-0.13672 0.23438-0.38672 0.375-0.65625 0.375h-0.39062c-0.32031 0-0.62109 0.16406-0.79688 0.43359l-1.2656 1.9141v-0.003907c-0.28906 0.43359-0.19922 1.0117 0.20703 1.332l0.85156 0.67969v-0.003906c0.61719 0.49609 0.77344 1.3711 0.37109 2.0508-0.33984 0.5625-0.33203 1.2656 0.023437 1.8164l1.8594 2.8984c0.17969 0.27734 0.52734 0.38672 0.83203 0.26562 0.38281-0.14453 0.81641-0.042969 1.0859 0.26562l3.2852 3.7461h0.003906c0.10938 0.125 0.30078 0.14453 0.42969 0.039062 0.25-0.19531 0.60547-0.16406 0.82031 0.070313l1.4883 1.6523-0.003906-0.003906c0.23828 0.26172 0.36719 0.60156 0.36719 0.95312v0.96484c0 0.45703-0.22266 0.89062-0.59375 1.1562-0.375 0.26953-0.85547 0.33984-1.2891 0.19141l-0.31641-0.10547v-0.003906c-0.11328-0.035156-0.23828-0.019531-0.33594 0.046875-0.097657 0.070313-0.16016 0.17969-0.16406 0.30078l-0.023437 0.68359v-0.003906c-0.015626 0.47656-0.25781 0.91797-0.65234 1.1875l-3.6641 2.5156c-0.14062 0.097656-0.23438 0.24219-0.26172 0.41016-0.027343 0.16406 0.015626 0.33594 0.11719 0.46875l1.0234 1.3633c0.37109 0.48828 0.40625 1.1523 0.089843 1.6758-0.066406 0.11328-0.070312 0.25391-0.003906 0.36719 0.0625 0.11328 0.18359 0.1875 0.31641 0.18359 0.21875 0 0.42969 0.09375 0.58203 0.25 0.15234 0.16016 0.23047 0.375 0.21875 0.59375l-0.070312 1.3398v0.003906c-0.007812 0.20703-0.12109 0.39453-0.30078 0.50391-0.17578 0.10938-0.39453 0.125-0.58594 0.039063l-0.86328-0.38281c-0.33203-0.14453-0.54688-0.47656-0.54688-0.83984 0-0.20703-0.10156-0.39844-0.26953-0.51953-0.30469-0.21484-0.71094-0.23047-1.0312-0.03125l-0.29297 0.17969c-0.3125 0.19531-0.70703 0.21094-1.0391 0.050781l-1.2578-0.60938c-0.089844-0.046875-0.19922-0.039062-0.28516 0.015625-0.089844 0.050781-0.14062 0.14844-0.14062 0.25-0.003907 0.49219-0.38281 0.89844-0.875 0.93359l-3.2578 0.20703c-0.19922 0.011719-0.35938 0.17969-0.35938 0.37891 0 0.36719-0.29688 0.66797-0.66406 0.66797-0.44531 0-0.86719 0.1875-1.1641 0.51562l-0.1875 0.20703c-0.28906 0.32422-0.70312 0.50781-1.1367 0.50781h-0.73828c-0.57422-0.003906-1.1094-0.30469-1.4102-0.80078-0.24219-0.40234-0.67578-0.65234-1.1445-0.66016l-1.5-0.027344h-0.007813c-0.10547 0-0.20312 0.050782-0.26172 0.13672-0.058594 0.085938-0.070313 0.19531-0.035157 0.29297 0.078125 0.21094 0.03125 0.44922-0.12109 0.61719l-1.3438 1.4688h0.003906c-0.082032 0.089843-0.19922 0.14062-0.32422 0.14062zm-3.5547-3.332h0.003906c0.09375 0 0.1875 0.027344 0.26953 0.074219l1.6953 1.0195c0.19922 0.12109 0.32031 0.33594 0.32422 0.56641v0.13281c0 0.21094 0.16797 0.37891 0.37891 0.37891 0.28516 0.003906 0.53516 0.18359 0.62891 0.45312l0.10938 0.32031h-0.003906c0.019531 0.050781 0.0625 0.089844 0.11719 0.10156 0.054687 0.011719 0.10938-0.007812 0.14453-0.046875l1.3438-1.4688c0.082032-0.085937 0.10547-0.21484 0.0625-0.32422-0.070312-0.1875-0.042968-0.39453 0.074219-0.55859 0.10938-0.16406 0.30078-0.26172 0.5-0.25391l1.5 0.027344c0.57031 0.007813 1.0898 0.30859 1.3828 0.79688 0.24609 0.41016 0.69141 0.66016 1.168 0.66016h0.73828c0.35156 0 0.69141-0.14844 0.92578-0.41016l0.1875-0.20703c0.35156-0.39062 0.85156-0.61328 1.375-0.61328 0.21094 0 0.38281-0.17188 0.38281-0.38281 0-0.35156 0.27344-0.64062 0.625-0.66406l3.2578-0.20703h-0.003906c0.34375-0.023437 0.60937-0.30469 0.60937-0.64844 0-0.19922 0.10547-0.38672 0.27344-0.49219 0.16797-0.10547 0.38281-0.11719 0.5625-0.03125l1.2578 0.60937c0.24609 0.12109 0.53516 0.10938 0.76563-0.035156l0.29297-0.17969c0.41797-0.25781 0.94531-0.23828 1.3438 0.042969 0.24219 0.17187 0.38672 0.45312 0.38672 0.75 0 0.25391 0.14844 0.48047 0.37891 0.58203l0.86719 0.38281c0.10547 0.046875 0.22656 0.035157 0.32422-0.023437 0.097656-0.058594 0.15625-0.16406 0.16406-0.27734l0.070312-1.3398c0.007813-0.14453-0.042968-0.28125-0.14453-0.38672-0.097656-0.10156-0.23438-0.16016-0.375-0.16016-0.23438 0-0.44922-0.125-0.5625-0.32812-0.11719-0.20312-0.11328-0.45312 0.007813-0.65234 0.25391-0.42578 0.22656-0.96484-0.074219-1.3594l-1.0234-1.3633c-0.14844-0.19922-0.20703-0.44531-0.16797-0.6875 0.039062-0.24219 0.17578-0.45703 0.37891-0.59766l3.668-2.5156c0.31641-0.21875 0.51172-0.57422 0.52734-0.96094l0.023437-0.68359c0.007813-0.20703 0.11328-0.40234 0.28516-0.51953 0.17188-0.12109 0.39062-0.14844 0.58984-0.082031l0.31641 0.10547c0.34766 0.12109 0.73047 0.0625 1.0312-0.15234 0.29688-0.21484 0.47656-0.55859 0.47656-0.92578v-0.96484c0-0.28125-0.10547-0.55078-0.29297-0.76172l-1.4883-1.6523c-0.11328-0.12109-0.30078-0.13672-0.42969-0.035157-0.25 0.19922-0.61328 0.16406-0.82422-0.078124l-3.2852-3.7422c-0.19141-0.21875-0.5-0.29297-0.76953-0.1875-0.43359 0.16797-0.92188 0.011719-1.1719-0.37891l-1.8594-2.8984c-0.41797-0.64062-0.42969-1.4609-0.03125-2.1172 0.32812-0.55469 0.19922-1.2734-0.30469-1.6797l-0.85156-0.67969c-0.51953-0.41016-0.63672-1.1523-0.26953-1.707l1.2656-1.9141c0.23047-0.34766 0.62109-0.55469 1.0391-0.55469h0.39062-0.003906c0.17188 0 0.32812-0.089843 0.41406-0.23828 0.19922-0.34375 0.63281-0.47656 0.99219-0.30078l0.41016 0.20312c0.066407 0.035156 0.14062 0.035156 0.20703 0.007813 0.070313-0.03125 0.12109-0.085938 0.14063-0.15625 0.13672-0.4375 0.54687-0.73438 1.0039-0.73438 0.24219 0 0.47266-0.11328 0.61719-0.30859l0.75-1c0.089844-0.11719 0.22656-0.19141 0.37891-0.20312 0.14453-0.003906 0.28906 0.054687 0.39453 0.16016 0.085937 0.089844 0.24219 0.0625 0.28516-0.058594l0.18359-0.48438v-0.003906c0.14844-0.39062 0.51172-0.66016 0.92969-0.69141l1.1406-0.082031c0.31641-0.023438 0.58203-0.24609 0.65625-0.55859 0.074219-0.29688 0.27734-0.54688 0.55469-0.67578l2.2539-1.0586v-0.003907c0.09375-0.042968 0.16406-0.12891 0.19531-0.22656 0.027343-0.10156 0.011718-0.21094-0.046876-0.30078l-0.25391-0.38672v0.003906c-0.082031-0.125-0.085937-0.28516-0.015625-0.41797 0.070313-0.12891 0.20703-0.21094 0.35547-0.21094h0.003906l0.63672 0.003906c0.42578 0.003906 0.80469 0.26562 0.95703 0.66406l0.38281 0.98828c0.10938 0.27344 0.37891 0.44922 0.67578 0.43359s0.54688-0.22266 0.625-0.50781l0.97266-3.6719c0.125-0.46484 0.11719-0.95703-0.015625-1.4219l-0.12891-0.44531h0.003906c-0.16797-0.57031-0.60547-1.0234-1.1758-1.207-0.59375-0.1875-0.92969-0.81641-0.75391-1.4141 0.070312-0.25391 0.027344-0.52344-0.125-0.73828l-0.82812-1.1914c-0.19141-0.27734-0.16016-0.65234 0.082031-0.88672 0.19922-0.19531 0.33984-0.44141 0.41016-0.71094l0.23438-0.89844h0.003907c0.050781-0.20312-0.015626-0.41797-0.17578-0.55078-0.20312-0.17578-0.3125-0.4375-0.28516-0.70312l0.066406-0.74609h-0.003906c0.027344-0.25391-0.13672-0.48828-0.38281-0.55469-0.23438-0.0625-0.42578-0.22266-0.52734-0.44141l-0.41016-0.89453c-0.09375-0.20312-0.054688-0.4375 0.097656-0.60156 0.21875-0.23047 0.33984-0.53906 0.33984-0.85938 0-0.50781-0.25391-0.98828-0.67969-1.2734l-2.1445-1.4492c-0.4375-0.29688-0.70312-0.78125-0.71875-1.3086-0.015625-0.52734 0.22266-1.0273 0.64062-1.3477l0.21484-0.16406c0.38672-0.29687 0.61328-0.75391 0.61328-1.2383 0-0.30859 0.042969-0.61328 0.13281-0.91016 0.15234-0.52344 0.15625-1.082 0.011719-1.6094l-1.0117-3.6367c-0.09375-0.37891-0.44922-0.63672-0.83984-0.60547-0.53516 0.027344-1.0586-0.14062-1.4805-0.46484l-0.18359-0.14062v-0.003906c-0.11719-0.089844-0.16016-0.24219-0.11328-0.38281 0.046875-0.13672 0.17969-0.23047 0.32422-0.23047 0.15625 0 0.30469-0.054687 0.42188-0.15625 0.17578-0.15234 0.39844-0.23438 0.63281-0.23438h0.25781c0.10938 0 0.21094-0.066406 0.25781-0.16797 0.046875-0.10156 0.027344-0.22266-0.046875-0.30469l-1.0938-1.207c-0.089844-0.097656-0.21094-0.16016-0.34375-0.16797-0.21094-0.015625-0.41016-0.11719-0.54688-0.27734l-0.21484-0.25v0.003907c-0.3125-0.36328-0.82812-0.47266-1.2617-0.27344l-0.42578 0.19922c-0.53125 0.24609-1.1641 0.11719-1.5547-0.32031-0.21875-0.25-0.32422-0.57812-0.28125-0.91016 0.039062-0.32812 0.22266-0.625 0.49609-0.8125l0.47656-0.32422c0.37891-0.26172 0.88281-0.24609 1.2461 0.035157l0.17969 0.14062c0.015625 0.015626 0.042969 0.015626 0.066407 0.003907 0.019531-0.007813 0.035156-0.03125 0.03125-0.054688l-0.023438-0.48047c-0.007812-0.19141-0.15234-0.34375-0.33984-0.37109-0.28516-0.035157-0.5-0.27344-0.50781-0.5625l-0.003906-0.097657c-0.007813-0.20312 0.12109-0.39062 0.31641-0.45703 0.074218-0.023437 0.125-0.09375 0.125-0.17578v-0.35156 0.003906c0-0.24219-0.19531-0.4375-0.4375-0.4375-0.23828 0-0.44141 0.17188-0.47656 0.41016l-0.058593 0.39844c-0.019532 0.13281-0.10156 0.24609-0.21875 0.30859-0.11719 0.0625-0.25781 0.0625-0.37891 0.003907l-0.30078-0.14844c-0.27344-0.13281-0.44531-0.42188-0.42969-0.72656 0.007813-0.12109 0.039063-0.23828 0.097657-0.33984l0.35938-0.63672v-0.003906c0.023437-0.035157 0.019531-0.085938-0.007813-0.12109-0.027343-0.039063-0.074219-0.054687-0.11719-0.039063l-0.25 0.0625h0.003906c-0.16797 0.042969-0.28125 0.19922-0.26953 0.37109l0.027343 0.37891c0.011719 0.16406-0.074218 0.32031-0.22266 0.39063-0.089844 0.046874-0.15234 0.13672-0.16406 0.24219-0.011719 0.10156 0.03125 0.20312 0.11328 0.26562 0.10547 0.082031 0.16797 0.20703 0.17578 0.33984 0.007813 0.12891-0.042968 0.26172-0.14062 0.35156-0.10547 0.10547-0.11719 0.26953-0.027343 0.38672 0.085937 0.11719 0.10937 0.26562 0.058593 0.40234-0.050781 0.13281-0.16797 0.23047-0.30859 0.26172l-0.21094 0.042968h0.003906c-0.33594 0.066406-0.67578-0.082031-0.85547-0.37109-0.042969-0.066406-0.11719-0.11328-0.19531-0.11719-0.082031 0-0.16016 0.03125-0.21094 0.09375l-0.23047 0.28516c-0.24609 0.29688-0.65234 0.41406-1.0195 0.29297-0.40234-0.13281-0.84766-0.046875-1.1719 0.22656l-0.37891 0.32031h0.003906c-0.24609 0.20312-0.55078 0.31641-0.86719 0.31641-0.27344 0-0.53906 0.10547-0.73438 0.29688-0.66406 0.63672-1.5078 1.0586-2.418 1.207l-0.29297 0.046874c-0.66406 0.10938-1.2383 0.51953-1.5586 1.1094l-0.52734 0.98047c-0.23047 0.44141-0.71094 0.69141-1.207 0.62891-0.26172-0.03125-0.50781-0.14453-0.69922-0.32812l-0.17578-0.17188c-0.38281-0.36328-0.96094-0.43359-1.418-0.16797-0.33203 0.19531-0.75 0.17969-1.0664-0.039063l-0.35156-0.24219c-0.21094-0.14453-0.28516-0.42188-0.17969-0.65625 0.12109-0.26562 0.38672-0.4375 0.67969-0.4375h0.03125 0.003906c0.12109 0 0.23828-0.046875 0.32813-0.13281l0.5-0.49219c0.38672-0.38672 0.60937-0.91406 0.60937-1.4609v-0.41016c0-0.12891-0.054687-0.25-0.14844-0.33594-0.09375-0.085937-0.21875-0.12891-0.34375-0.11719-0.39062 0.03125-0.75781 0.17578-1.0625 0.41797-0.30859 0.24219-0.73047 0.27734-1.0742 0.085937l-1.9883-1.1016c-0.11719-0.066407-0.26172-0.066407-0.38281-0.003907-0.18359 0.097657-0.39844 0.10938-0.58984 0.027344-0.19141-0.082031-0.33594-0.24609-0.39062-0.44531-0.027344-0.097656-0.125-0.15625-0.22656-0.13281l-0.78516 0.21094c-0.14453 0.039062-0.29688-0.019531-0.375-0.14453-0.082031-0.125-0.074219-0.28906 0.023437-0.40234 0.17578-0.20703 0.28906-0.46094 0.33594-0.72656 0.11328-0.61328 0.035156-1.2461-0.22266-1.8164-0.10547-0.24219-0.30859-0.42969-0.55859-0.51172l-1.0469-0.35156c-0.66016-0.22266-1.375-0.23438-2.0391-0.039063-0.49219 0.14453-1.0195 0.074219-1.457-0.1875l-0.64844-0.39453h-0.003906c-0.58203-0.35547-1.2461-0.53906-1.9297-0.53906-0.33203 0-0.61328 0.25781-0.64062 0.59375-0.019531 0.26953 0.046875 0.54297 0.19141 0.77344l1.7266 2.7617c0.19531 0.31641 0.20703 0.71094 0.027344 1.0352-0.17969 0.32031-0.51953 0.52344-0.89063 0.52344h-0.85156 0.003906c-0.1875 0-0.35547 0.097656-0.44922 0.25391l-0.14453 0.24219v0.003907c-0.10156 0.17187-0.09375 0.38672 0.015625 0.55078 0.10938 0.16797 0.30859 0.25781 0.50391 0.23047l0.64453-0.089844c0.15625-0.023438 0.30859 0.054687 0.38672 0.1875 0.078124 0.13672 0.0625 0.30859-0.035157 0.42969-0.13281 0.17188-0.19531 0.38672-0.17188 0.60547l0.019532 0.14844c0.007812 0.074218 0.050781 0.14453 0.12109 0.17969 0.066407 0.039063 0.14844 0.042969 0.21875 0.007813 0.22656-0.10547 0.5-0.03125 0.64453 0.17187l0.14453 0.20313v0.003906c0.16016 0.22266 0.17969 0.51172 0.0625 0.75391-0.12109 0.24219-0.36719 0.39844-0.63672 0.41016-0.14453 0.003906-0.22266 0.16797-0.13672 0.28516l0.63672 0.84375c0.125 0.16797 0.15234 0.39063 0.074219 0.58203-0.078125 0.19531-0.25391 0.33203-0.46094 0.36328-0.54688 0.082031-1.1094-0.046875-1.5625-0.36328-0.12109-0.082032-0.26953-0.10938-0.41016-0.070313-0.13672 0.039063-0.25391 0.13672-0.3125 0.26953l-0.45312 0.99609h-0.003906c-0.13672 0.30469-0.18359 0.64844-0.125 0.97656l0.10156 0.61719c0.03125 0.1875-0.046875 0.37891-0.20703 0.48438-0.15625 0.10938-0.35938 0.11719-0.52344 0.019531l-0.70312-0.41797c-0.074219-0.042969-0.16016-0.050782-0.23828-0.019532s-0.13672 0.09375-0.16016 0.17578c-0.058594 0.19141 0.027344 0.39453 0.20312 0.49219 0.16016 0.085938 0.25781 0.25391 0.25781 0.4375 0 0.41797-0.18359 0.8125-0.5 1.082-0.14063 0.12109-0.34375 0.13281-0.49609 0.03125l-0.54688-0.35156h-0.003907c-0.27734-0.17969-0.46094-0.48047-0.48828-0.80859l-0.17578-1.918h-0.003906c-0.023438-0.21484-0.20312-0.37891-0.42188-0.375l-3.4453 0.074218c-0.58984 0.011719-1.1562 0.24609-1.5781 0.66016l-0.22656 0.21875c-0.097657 0.09375-0.11719 0.24609-0.042969 0.36328 0.085938 0.13672 0.10938 0.30859 0.0625 0.46875-0.046875 0.15625-0.16016 0.28516-0.3125 0.35547l-0.17969 0.082032c-0.09375 0.042968-0.16016 0.13672-0.16797 0.24219l-0.046875 0.60156v-0.003906c-0.027344 0.34766 0.18359 0.66797 0.51172 0.78125 0.4375 0.15234 0.72266 0.57031 0.70312 1.0312l-0.10937 2.4258c-0.023438 0.57812-0.27734 1.1211-0.69922 1.5156-0.39453 0.36719-0.61719 0.88281-0.61328 1.4258l0.007812 0.68359c0.003906 0.23047-0.09375 0.44922-0.26562 0.60547-0.16797 0.15234-0.39844 0.22656-0.62891 0.19922l-0.75-0.089844c-0.27734-0.03125-0.52734 0.16406-0.56641 0.44141l-0.10937 0.77344v-0.003906c-0.039063 0.26562 0.13281 0.51562 0.39453 0.57812l0.85938 0.19531c0.5 0.10937 0.85547 0.55469 0.85156 1.0664 0 0.92188-0.39844 1.8008-1.0938 2.4062l-0.97266 0.84375h-0.003906c-0.070313 0.0625-0.11328 0.15234-0.11328 0.24609s0.039063 0.18359 0.10938 0.24609c0.15234 0.13672 0.22656 0.33984 0.19922 0.54297-0.03125 0.20312-0.16016 0.37891-0.34766 0.46484l-1.4102 0.65625v0.003906c-0.70312 0.32812-1.5234 0.29297-2.2031-0.089844-0.34375-0.19531-0.77734-0.11719-1.0352 0.18359l-0.52344 0.61328c-0.18359 0.21484-0.20703 0.51953-0.0625 0.75781l0.92969 1.5273c0.65234 1.0703 0.57422 2.4336-0.19922 3.418l-0.22266 0.28516c-0.15234 0.19141-0.20703 0.44141-0.16016 0.67578 0.089844 0.41406-0.070312 0.84375-0.40234 1.1016l-0.87109 0.67969h-0.003906c-0.09375 0.074218-0.15234 0.1875-0.16016 0.30859-0.003906 0.11719 0.042969 0.23828 0.12891 0.32031l0.41406 0.39453c0.37109 0.35156 0.45312 0.91016 0.20312 1.3555-0.19922 0.35156-0.11719 0.80078 0.19922 1.0547l1.0508 0.85937c0.24609 0.19531 0.3125 0.54688 0.15234 0.81641l-0.10156 0.17969h-0.003906c-0.0625 0.10938-0.0625 0.24609 0 0.35547 0.0625 0.11328 0.18359 0.17969 0.30859 0.17969 0.35547 0.003907 0.64062 0.28906 0.64453 0.64453v0.59766c-0.003906 0.51172-0.26953 0.98828-0.71094 1.2539-0.76953 0.47266-1.2422 1.3125-1.2422 2.2148-0.003906 0.85938 0.37891 1.6758 1.0391 2.2305l0.82031 0.6875c0.47656 0.40234 0.63281 1.0703 0.38281 1.6406l-0.86328 1.9648c-0.050781 0.11719-0.039062 0.25391 0.03125 0.36328 0.070313 0.10547 0.1875 0.17188 0.31641 0.17188 0.35156 0 0.66016 0.21875 0.78125 0.55078l0.91406 2.5547c0.10547 0.28516 0.375 0.48047 0.67969 0.48047 0.15625 0 0.28516-0.12891 0.28516-0.28516 0-0.29688 0.23047-0.54297 0.52344-0.56641 0.24219-0.015625 0.48047 0.066406 0.65625 0.23047 0.17969 0.16406 0.28125 0.39453 0.28125 0.63672 0 0.16797 0.066406 0.33203 0.1875 0.44922 0.11719 0.12109 0.28125 0.1875 0.44922 0.17969l0.48047-0.011718h0.003906c0.32031-0.003906 0.625-0.13281 0.85156-0.35547 0.28906-0.28125 0.67188-0.4375 1.0742-0.4375 0.26562 0 0.48047 0.21484 0.48438 0.48047 0 0.25 0.15625 0.46875 0.39062 0.55078l3.6797 1.2617c0.22266 0.074218 0.39062 0.25391 0.45703 0.47656s0.023438 0.46484-0.12109 0.64844c-1.457 1.8555-2.6133 3.9258-3.4375 6.1367l-0.86328 2.3242c-0.11719 0.32031-0.082031 0.67969 0.10156 0.96875 0.23047 0.36719 0.27344 0.82031 0.12109 1.2266l-0.55078 1.4531c-0.25391 0.65234-0.19141 1.3867 0.16016 1.9922l0.23047 0.39844h0.003906c0.085938 0.15234 0.23047 0.25781 0.39844 0.30078s0.34766 0.015625 0.49609-0.078125l0.38672-0.23828c0.13672-0.085938 0.30469-0.10547 0.45312-0.050781 0.15234 0.054687 0.26953 0.17578 0.32031 0.32812 0.035156 0.10156 0.125 0.16797 0.23047 0.16797h0.28516-0.003906c0.37109-0.003906 0.73047-0.125 1.0234-0.34766l0.13281-0.10156h0.003906c0.37109-0.28516 0.89453-0.26172 1.2422 0.054688 0.125 0.11719 0.29297 0.17969 0.46484 0.17969h0.8125-0.003906c0.085937 0 0.15625-0.070313 0.15625-0.15625v-0.34766c0-0.097656-0.054688-0.19141-0.14453-0.23438-0.16406-0.082031-0.28125-0.23047-0.31641-0.40625-0.039062-0.17578 0.003907-0.35938 0.12109-0.5 0.43359-0.52734 1.0781-0.83203 1.7617-0.82812 0.16016-0.007812 0.31641 0.050781 0.42969 0.16406 0.11719 0.10938 0.18359 0.26562 0.18359 0.42578 0.003906 0.17188-0.074219 0.33594-0.20703 0.44922-0.058594 0.050781-0.089844 0.13281-0.074219 0.21484 0.011719 0.078124 0.070313 0.14453 0.14453 0.17187l0.67578 0.24609c0.32812 0.11719 0.69141 0.097656 1.0039-0.0625 0.41406-0.20703 0.89844-0.21875 1.3242-0.03125l3.5312 1.5664c0.24609 0.10938 0.53516 0.054688 0.72656-0.13672l0.23047-0.22656c0.097656-0.10156 0.23438-0.15625 0.375-0.15625z"/></svg>